<svg xmlns="http://www.w3.org/2000/svg" viewBox="0 0 100 100">
  <defs>
    <circle id="d" r="2.5" fill="#FFC107"/>
  </defs>
  <!-- Ring 1 -->
  <circle cx="50" cy="25" r="3.5" fill="#FFC107" transform="rotate(0 50 50)"/>
  <circle cx="50" cy="25" r="3.5" fill="#FFC107" transform="rotate(60 50 50)"/>
  <circle cx="50" cy="25" r="3.5" fill="#FFC107" transform="rotate(120 50 50)"/>
  <circle cx="50" cy="25" r="3.5" fill="#FFC107" transform="rotate(180 50 50)"/>
  <circle cx="50" cy="25" r="3.5" fill="#FFC107" transform="rotate(240 50 50)"/>
  <circle cx="50" cy="25" r="3.5" fill="#FFC107" transform="rotate(300 50 50)"/>

  <!-- Ring 2 -->
  <circle cx="50" cy="15" r="3" fill="#FFC107" transform="rotate(30 50 50)"/>
  <circle cx="50" cy="15" r="3" fill="#FFC107" transform="rotate(90 50 50)"/>
  <circle cx="50" cy="15" r="3" fill="#FFC107" transform="rotate(150 50 50)"/>
  <circle cx="50" cy="15" r="3" fill="#FFC107" transform="rotate(210 50 50)"/>
  <circle cx="50" cy="15" r="3" fill="#FFC107" transform="rotate(270 50 50)"/>
  <circle cx="50" cy="15" r="3" fill="#FFC107" transform="rotate(330 50 50)"/>
  
  <circle cx="50" cy="15" r="3" fill="#FFC107" transform="rotate(0 50 50)"/>
  <circle cx="50" cy="15" r="3" fill="#FFC107" transform="rotate(60 50 50)"/>
  <circle cx="50" cy="15" r="3" fill="#FFC107" transform="rotate(120 50 50)"/>
  <circle cx="50" cy="15" r="3" fill="#FFC107" transform="rotate(180 50 50)"/>
  <circle cx="50" cy="15" r="3" fill="#FFC107" transform="rotate(240 50 50)"/>
  <circle cx="50" cy="15" r="3" fill="#FFC107" transform="rotate(300 50 50)"/>

  <!-- Ring 3 -->
  <g transform="rotate(15 50 50)">
    <circle cx="50" cy="5" r="2.5" fill="#FFC107" transform="rotate(0 50 50)"/>
    <circle cx="50" cy="5" r="2.5" fill="#FFC107" transform="rotate(20 50 50)"/>
    <circle cx="50" cy="5" r="2.5" fill="#FFC107" transform="rotate(40 50 50)"/>
    <circle cx="50" cy="5" r="2.5" fill="#FFC107" transform="rotate(60 50 50)"/>
    <circle cx="50" cy="5" r="2.5" fill="#FFC107" transform="rotate(80 50 50)"/>
    <circle cx="50" cy="5" r="2.5" fill="#FFC107" transform="rotate(100 50 50)"/>
    <circle cx="50" cy="5" r="2.5" fill="#FFC107" transform="rotate(120 50 50)"/>
    <circle cx="50" cy="5" r="2.5" fill="#FFC107" transform="rotate(140 50 50)"/>
    <circle cx="50" cy="5" r="2.5" fill="#FFC107" transform="rotate(160 50 50)"/>
    <circle cx="50" cy="5" r="2.5" fill="#FFC107" transform="rotate(180 50 50)"/>
    <circle cx="50" cy="5" r="2.5" fill="#FFC107" transform="rotate(200 50 50)"/>
    <circle cx="50" cy="5" r="2.5" fill="#FFC107" transform="rotate(220 50 50)"/>
    <circle cx="50" cy="5" r="2.5" fill="#FFC107" transform="rotate(240 50 50)"/>
    <circle cx="50" cy="5" r="2.5" fill="#FFC107" transform="rotate(260 50 50)"/>
    <circle cx="50" cy="5" r="2.5" fill="#FFC107" transform="rotate(280 50 50)"/>
    <circle cx="50" cy="5" r="2.5" fill="#FFC107" transform="rotate(300 50 50)"/>
    <circle cx="50" cy="5" r="2.5" fill="#FFC107" transform="rotate(320 50 50)"/>
    <circle cx="50" cy="5" r="2.5" fill="#FFC107" transform="rotate(340 50 50)"/>
  </g>
</svg>